<svg width="59" height="150" viewBox="0 0 59 150" fill="none" xmlns="http://www.w3.org/2000/svg">
<path d="M42.5655 149.474C43.6688 149.526 44.6055 148.674 44.6575 147.571L45.5058 129.591C45.5578 128.487 44.7056 127.551 43.6023 127.498C42.4989 127.446 41.5623 128.299 41.5102 129.402L40.7562 145.384L24.774 144.63C23.6707 144.578 22.734 145.43 22.682 146.534C22.6299 147.637 23.4822 148.574 24.5855 148.626L42.5655 149.474ZM19.3007 109.109L21.2101 108.514L21.2101 108.514L19.3007 109.109ZM20.0542 74.3291L18.9706 72.6481L20.0542 74.3291ZM53.5304 93.4218L54.908 94.8717L53.5304 93.4218ZM15.5052 81.1911L16.9666 79.8257L15.5052 81.1911ZM3.54973 26.1081L1.57719 25.7778L3.54973 26.1081ZM8.31001 2.69442C7.88731 3.71491 8.37191 4.88485 9.3924 5.30755C10.4129 5.73025 11.5828 5.24564 12.0055 4.22515L8.31001 2.69442ZM44.139 146.13C34.5162 135.554 25.4149 122.009 21.2101 108.514L17.3912 109.704C21.8278 123.943 31.3215 137.987 41.1805 148.822L44.139 146.13ZM21.2101 108.514C19.8171 104.043 17.4223 97.3053 16.6443 90.7932C15.8544 84.1818 16.8437 78.778 21.1377 76.0102L18.9706 72.6481C12.5953 76.7574 11.8505 84.3869 12.6725 91.2677C13.5064 98.2478 16.0696 105.462 17.3912 109.704L21.2101 108.514ZM21.1377 76.0102C21.9613 75.4793 23.2503 75.0592 25.006 74.8495C26.7364 74.6428 28.785 74.6561 31.0133 74.8823C35.4748 75.3353 40.4664 76.6218 44.7398 78.4802C49.0907 80.3722 52.354 82.7079 53.7774 85.0523C54.4533 86.1655 54.6729 87.2067 54.4972 88.2199C54.3172 89.2577 53.6773 90.5233 52.1527 91.972L54.908 94.8717C56.8571 93.0197 58.0708 91.0233 58.4384 88.9033C58.8102 86.7589 58.2714 84.7467 57.1965 82.9764C55.1185 79.5538 50.9118 76.8023 46.335 74.812C41.6808 72.7881 36.2872 71.3972 31.4173 70.9028C28.9798 70.6553 26.6261 70.6275 24.5315 70.8777C22.4622 71.1249 20.5035 71.66 18.9706 72.6481L21.1377 76.0102ZM52.1527 91.972C47.8902 96.0223 41.2644 95.3463 34.0491 92.0298C26.9915 88.7858 20.3106 83.4047 16.9666 79.8257L14.0439 82.5566C17.6968 86.4661 24.7914 92.1768 32.3785 95.6642C39.8079 99.0791 48.6963 100.774 54.908 94.8717L52.1527 91.972ZM16.9666 79.8257C11.1357 73.5851 7.53922 64.5149 5.77701 54.7522C4.01904 45.013 4.12442 34.7868 5.52228 26.4384L1.57719 25.7778C0.105512 34.5671 -0.00149331 45.2574 1.84062 55.4627C3.67848 65.6445 7.49449 75.547 14.0439 82.5566L16.9666 79.8257ZM5.52228 26.4384C6.13989 22.7497 8.48145 15.4422 10.3668 9.78289C11.2892 7.01405 12.1011 4.64236 12.4822 3.45285C12.5764 3.15883 12.6581 2.89446 12.7093 2.70223C12.7231 2.65054 12.7789 2.4485 12.7996 2.23337C12.8052 2.17495 12.8186 2.02005 12.7991 1.82571C12.7893 1.7284 12.7646 1.54834 12.6871 1.33586C12.6145 1.13688 12.4376 0.749388 12.0246 0.432167C10.9268 -0.41103 9.83948 0.252661 9.66639 0.371799C9.40624 0.550875 9.25193 0.750359 9.21463 0.798129C9.05023 1.00873 8.94012 1.24444 8.92499 1.27527C8.87563 1.37591 8.82152 1.49433 8.76516 1.62154C8.65109 1.87906 8.49986 2.23609 8.31001 2.69442L12.0055 4.22515C12.1919 3.77529 12.3283 3.45399 12.4224 3.24165C12.4701 3.13393 12.5002 3.06954 12.5162 3.03681C12.5665 2.93427 12.5031 3.08605 12.3677 3.2595C12.3376 3.29798 12.1895 3.4911 11.9344 3.66668C11.7664 3.78234 10.683 4.44543 9.58811 3.60446C9.17655 3.28836 9.00082 2.9027 8.92918 2.70624C8.85262 2.4963 8.82857 2.31947 8.81918 2.2261C8.80042 2.03964 8.81361 1.89541 8.81794 1.85041C8.83347 1.68898 8.86754 1.58474 8.84422 1.67226C8.82124 1.75846 8.76717 1.93819 8.67287 2.23254C8.29999 3.39654 7.51528 5.68672 6.57185 8.51862C4.72549 14.0609 2.25827 21.7102 1.57719 25.7778L5.52228 26.4384Z" fill="url(#paint0_linear_1581_3872)"/>
<defs>
<linearGradient id="paint0_linear_1581_3872" x1="42.6597" y1="147.476" x2="82.8323" y2="26.5952" gradientUnits="userSpaceOnUse">
<stop stop-color="#656EEA"/>
<stop offset="1" stop-color="#3CC7F4"/>
</linearGradient>
</defs>
</svg>
