<svg width="28" height="28" viewBox="0 0 28 28" fill="none" xmlns="http://www.w3.org/2000/svg">
<circle cx="13.9548" cy="13.8839" r="13.1536" fill="#3CC7F4"/>
<g clip-path="url(#clip0_1457_6214)">
<path d="M17.7003 12.2837C17.7003 10.8824 17.1436 9.53844 16.1527 8.54754C15.1618 7.55665 13.8179 6.99997 12.4166 6.99997C11.0152 6.99997 9.67128 7.55665 8.68039 8.54754C7.68949 9.53844 7.13281 10.8824 7.13281 12.2837L7.13281 17.5675H12.4166C13.8174 17.5659 15.1605 17.0087 16.151 16.0182C17.1416 15.0276 17.6988 13.6846 17.7003 12.2837ZM12.4166 15.8062H8.89406V12.2837C8.89406 11.587 9.10065 10.906 9.48771 10.3267C9.87477 9.74745 10.4249 9.29596 11.0686 9.02935C11.7122 8.76274 12.4205 8.69299 13.1038 8.8289C13.7871 8.96482 14.4147 9.30031 14.9073 9.79294C15.4 10.2856 15.7355 10.9132 15.8714 11.5965C16.0073 12.2798 15.9375 12.9881 15.6709 13.6317C15.4043 14.2754 14.9528 14.8255 14.3736 15.2126C13.7943 15.5996 13.1132 15.8062 12.4166 15.8062ZM21.2228 16.3933V21.09H16.5261C15.7025 21.0891 14.8936 20.8717 14.1805 20.4595C13.4675 20.0474 12.8753 19.4549 12.4635 18.7416C13.1261 18.737 13.7839 18.6301 14.4138 18.4246C14.6865 18.7102 15.0143 18.9376 15.3774 19.093C15.7404 19.2484 16.1312 19.3286 16.5261 19.3287H19.4616V16.3933C19.4613 15.998 19.3808 15.6069 19.225 15.2436C19.0692 14.8803 18.8413 14.5525 18.5551 14.2798C18.7612 13.6504 18.869 12.993 18.8745 12.3307C19.5878 12.7425 20.1802 13.3346 20.5924 14.0477C21.0046 14.7608 21.222 15.5697 21.2228 16.3933Z" fill="white"/>
</g>
<defs>
<clipPath id="clip0_1457_6214">
<rect width="14.09" height="14.09" fill="white" transform="translate(7.13281 6.99997)"/>
</clipPath>
</defs>
</svg>
