<svg width="28" height="28" viewBox="0 0 28 28" fill="none" xmlns="http://www.w3.org/2000/svg">
<circle cx="13.9548" cy="13.8839" r="13.1536" fill="#FF3D40"/>
<g clip-path="url(#clip0_1457_6267)">
<path d="M13.9546 20.1656L13.48 19.8302C12.8552 19.3884 7.37782 15.4089 7.37782 11.7736C7.34238 10.755 7.71163 9.76384 8.40485 9.0167C9.09807 8.26957 10.0589 7.82725 11.0773 7.78644C11.6394 7.79196 12.1924 7.92902 12.6921 8.18665C13.1917 8.44428 13.6241 8.81531 13.9546 9.27005C14.2851 8.81531 14.7175 8.44428 15.2171 8.18665C15.7168 7.92902 16.2698 7.79196 16.8319 7.78644C17.8503 7.82725 18.8111 8.26957 19.5043 9.0167C20.1976 9.76384 20.5668 10.755 20.5314 11.7736C20.5314 15.4089 15.054 19.3884 14.4292 19.8302L13.9546 20.1656ZM11.0773 9.43063C10.4952 9.47187 9.95289 9.74105 9.5681 10.1797C9.1833 10.6184 8.98707 11.1911 9.02202 11.7736C9.02202 13.9198 12.2353 16.8213 13.9546 18.1372C15.6739 16.8218 18.8872 13.9198 18.8872 11.7736C18.9221 11.1911 18.7259 10.6184 18.3411 10.1797C17.9563 9.74105 17.414 9.47187 16.8319 9.43063C16.2499 9.47187 15.7076 9.74105 15.3228 10.1797C14.938 10.6184 14.7418 11.1911 14.7767 11.7736H13.1325C13.1674 11.1911 12.9712 10.6184 12.5864 10.1797C12.2016 9.74105 11.6593 9.47187 11.0773 9.43063Z" fill="#F9F8FD"/>
</g>
<defs>
<clipPath id="clip0_1457_6267">
<rect width="13.1536" height="13.1536" fill="white" transform="translate(7.37793 7.30707)"/>
</clipPath>
</defs>
</svg>
