<svg width="27" height="28" viewBox="0 0 27 28" fill="none" xmlns="http://www.w3.org/2000/svg">
<circle cx="13.4607" cy="13.8839" r="13.1536" fill="#1ED875"/>
<path d="M9.57385 20.9494V7.16409L17.81 12.422C18.0843 12.5957 18.3102 12.836 18.4665 13.1205C18.6229 13.4051 18.7046 13.7246 18.7042 14.0492C18.7037 14.3739 18.621 14.6932 18.4639 14.9772C18.3067 15.2613 18.0801 15.501 17.8053 15.6739L9.57385 20.9494ZM11.3351 10.3784V17.7281L16.8607 14.1868C16.8861 14.1733 16.9072 14.153 16.9217 14.1283C16.9362 14.1035 16.9436 14.0752 16.9429 14.0465C16.9439 14.019 16.9373 13.9918 16.924 13.9678C16.9107 13.9438 16.891 13.9239 16.8672 13.9103L11.3351 10.3784Z" fill="white"/>
</svg>
