<svg width="27" height="28" viewBox="0 0 27 28" fill="none" xmlns="http://www.w3.org/2000/svg">
<circle cx="13.4607" cy="13.8839" r="13.1536" fill="#656EEA"/>
<g clip-path="url(#clip0_1457_6250)">
<path d="M16.8666 14.9408C16.8666 16.1153 15.6922 17.8769 13.9347 17.8769C12.1772 17.8769 10.9945 16.1153 10.9945 14.9408H16.8666ZM20.9771 14.3536C20.9771 12.9599 20.5639 11.5976 19.7896 10.4388C19.0153 9.27997 17.9148 8.37679 16.6272 7.84346C15.3396 7.31012 13.9228 7.17058 12.5559 7.44247C11.189 7.71436 9.9334 8.38548 8.94792 9.37096C7.96244 10.3564 7.29133 11.612 7.01943 12.9789C6.74754 14.3458 6.88709 15.7626 7.42042 17.0502C7.95376 18.3378 8.85693 19.4383 10.0157 20.2126C11.1745 20.9869 12.5369 21.4002 13.9306 21.4002C15.7988 21.3981 17.59 20.6551 18.911 19.334C20.2321 18.013 20.9751 16.2219 20.9771 14.3536ZM19.2155 14.3536C19.2155 15.3989 18.9055 16.4207 18.3248 17.2898C17.7441 18.1589 16.9187 18.8362 15.953 19.2362C14.9873 19.6362 13.9247 19.7409 12.8995 19.537C11.8744 19.3331 10.9327 18.8297 10.1936 18.0906C9.45448 17.3515 8.95114 16.4098 8.74722 15.3847C8.5433 14.3595 8.64796 13.2969 9.04796 12.3312C9.44796 11.3655 10.1253 10.5401 10.9944 9.95938C11.8635 9.37866 12.8853 9.06871 13.9306 9.06871C15.3317 9.07042 16.6749 9.62777 17.6657 10.6185C18.6564 11.6093 19.2138 12.9525 19.2155 14.3536ZM10.4073 12.9837V13.7664H13.3434V12.9837C13.356 12.5814 13.2086 12.1905 12.9333 11.8969C12.6581 11.6033 12.2776 11.4309 11.8753 11.4176C11.4731 11.4309 11.0926 11.6033 10.8174 11.8969C10.5421 12.1905 10.3946 12.5814 10.4073 12.9837ZM14.5178 12.9837V13.7664H17.4539V12.9837C17.4665 12.5814 17.319 12.1905 17.0438 11.8969C16.7686 11.6033 16.3881 11.4309 15.9858 11.4176C15.5836 11.4309 15.2031 11.6033 14.9278 11.8969C14.6526 12.1905 14.5051 12.5814 14.5178 12.9837Z" fill="#F9F8FD"/>
</g>
<defs>
<clipPath id="clip0_1457_6250">
<rect width="14.0931" height="14.0931" fill="white" transform="translate(6.88403 7.30707)"/>
</clipPath>
</defs>
</svg>
