<svg width="143" height="69" viewBox="0 0 143 69" fill="none" xmlns="http://www.w3.org/2000/svg">
<path d="M3.02592 66.0381C3.2044 67.1282 4.23275 67.8672 5.3228 67.6887L23.0863 64.7801C24.1763 64.6017 24.9153 63.5733 24.7368 62.4833C24.5583 61.3932 23.53 60.6542 22.4399 60.8327L6.65019 63.4181L4.06484 47.6283C3.88635 46.5383 2.858 45.7993 1.76795 45.9778C0.677897 46.1563 -0.0610793 47.1846 0.117393 48.2747L3.02592 66.0381ZM37.6722 34.8893L38.6511 36.6333L38.6511 36.6333L37.6722 34.8893ZM71.8484 28.3952L73.2674 26.9858L71.8484 28.3952ZM60.133 65.1095L59.0012 66.7585L60.133 65.1095ZM64.1905 25.3724L65.8299 26.5179L64.1905 25.3724ZM115.584 2.22572L115.497 0.227618L115.584 2.22572ZM139.476 2.014C138.39 1.81271 137.346 2.52997 137.145 3.61604C136.944 4.70211 137.661 5.74573 138.747 5.94702L139.476 2.014ZM6.62378 66.8821C14.9678 55.2706 26.3249 43.5521 38.6511 36.6333L36.6932 33.1452C23.6876 40.4453 11.9242 52.6515 3.37549 64.5478L6.62378 66.8821ZM38.6511 36.6333C42.7349 34.3411 48.827 30.5979 55.0351 28.4829C61.3379 26.3357 66.8292 26.1799 70.4293 29.8046L73.2674 26.9858C67.9223 21.6042 60.3047 22.4619 53.7452 24.6966C47.091 26.9635 40.5677 30.9705 36.6932 33.1452L38.6511 36.6333ZM70.4293 29.8046C71.1198 30.4998 71.7987 31.6733 72.3689 33.347C72.9309 34.9966 73.3438 37.0032 73.5858 39.2298C74.0703 43.6881 73.8497 48.8381 72.9205 53.4045C71.9744 58.0536 70.3682 61.7313 68.371 63.611C67.4227 64.5035 66.4499 64.9348 65.4222 64.9736C64.3697 65.0134 62.9987 64.6505 61.2647 63.4605L59.0012 66.7585C61.218 68.2799 63.4231 69.052 65.5731 68.9708C67.7481 68.8887 69.6043 67.9432 71.1124 66.5238C74.0281 63.7796 75.8449 59.0927 76.8401 54.2021C77.8522 49.2288 78.0913 43.664 77.5624 38.7976C77.2976 36.362 76.8355 34.054 76.1552 32.0571C75.4832 30.0845 74.5526 28.2798 73.2674 26.9858L70.4293 29.8046ZM61.2647 63.4605C56.4167 60.1332 55.7004 53.5117 57.4442 45.7645C59.15 38.1866 63.0244 30.533 65.8299 26.5179L62.5511 24.2268C59.4864 28.6127 55.3756 36.7396 53.5419 44.8861C51.7463 52.8631 51.9363 61.9097 59.0012 66.7585L61.2647 63.4605ZM65.8299 26.5179C70.7219 19.517 78.8461 14.1133 88.0291 10.3598C97.19 6.61533 107.215 4.59226 115.671 4.22383L115.497 0.227618C106.594 0.615502 96.115 2.73346 86.5157 6.65713C76.9385 10.5717 68.0458 16.3632 62.5511 24.2268L65.8299 26.5179ZM115.671 4.22383C119.408 4.06104 127.042 4.83209 132.97 5.49962C135.87 5.82621 138.359 6.12727 139.602 6.25268C139.909 6.28368 140.184 6.30868 140.383 6.31881C140.436 6.32155 140.646 6.33408 140.86 6.30959C140.919 6.30294 141.073 6.2839 141.259 6.22437C141.352 6.19456 141.523 6.13296 141.715 6.01299C141.894 5.90064 142.237 5.64703 142.461 5.17708C143.058 3.92793 142.182 3.00237 142.03 2.85784C141.801 2.6406 141.573 2.53114 141.519 2.50459C141.279 2.38757 141.025 2.32887 140.992 2.32049C140.883 2.29312 140.756 2.26482 140.62 2.23614C140.344 2.1781 139.964 2.1044 139.476 2.014L138.747 5.94702C139.226 6.03576 139.568 6.10243 139.796 6.15029C139.911 6.17457 139.98 6.1906 140.016 6.19949C140.126 6.22737 139.965 6.19686 139.767 6.10048C139.723 6.0791 139.503 5.97433 139.278 5.76131C139.13 5.62101 138.257 4.69922 138.852 3.45338C139.075 2.98509 139.416 2.73301 139.593 2.62209C139.783 2.50356 139.95 2.44327 140.04 2.41467C140.218 2.35756 140.362 2.34047 140.407 2.33535C140.568 2.31698 140.677 2.32863 140.587 2.32401C140.498 2.31947 140.311 2.30394 140.003 2.2729C138.787 2.15017 136.384 1.85878 133.418 1.52474C127.613 0.871022 119.617 0.0481118 115.497 0.227618L115.671 4.22383Z" fill="url(#paint0_linear_1583_8079)"/>
<defs>
<linearGradient id="paint0_linear_1583_8079" x1="4.99964" y1="65.7149" x2="131.592" y2="79.8771" gradientUnits="userSpaceOnUse">
<stop stop-color="#656EEA"/>
<stop offset="1" stop-color="#3CC7F4"/>
</linearGradient>
</defs>
</svg>
