<svg width="27" height="28" viewBox="0 0 27 28" fill="none" xmlns="http://www.w3.org/2000/svg">
<circle cx="13.4492" cy="13.8839" r="13.1536" fill="#FFA12E"/>
<g clip-path="url(#clip0_1457_6228)">
<path d="M18.1578 7.30707H8.74091C8.24557 7.30765 7.77069 7.50468 7.42043 7.85494C7.07017 8.20519 6.87314 8.68008 6.87256 9.17542V20.4606H20.0261V9.17542C20.0255 8.68008 19.8285 8.20519 19.4782 7.85494C19.128 7.50468 18.6531 7.30765 18.1578 7.30707V7.30707ZM8.74091 8.95126H18.1578C18.2172 8.95141 18.2741 8.97507 18.3161 9.01708C18.3581 9.05908 18.3818 9.11601 18.3819 9.17542V18.8164L12.5801 13.0146C12.3745 12.8091 12.0958 12.6937 11.8051 12.6937C11.5145 12.6937 11.2357 12.8091 11.0302 13.0146L8.51675 15.528V9.17542C8.5169 9.11601 8.54056 9.05908 8.58257 9.01708C8.62457 8.97507 8.6815 8.95141 8.74091 8.95126Z" fill="white"/>
<path d="M15.3675 12.7875C16.1242 12.7875 16.7376 12.1741 16.7376 11.4174C16.7376 10.6607 16.1242 10.0472 15.3675 10.0472C14.6108 10.0472 13.9973 10.6607 13.9973 11.4174C13.9973 12.1741 14.6108 12.7875 15.3675 12.7875Z" fill="white"/>
</g>
<defs>
<clipPath id="clip0_1457_6228">
<rect width="13.1536" height="13.1536" fill="white" transform="translate(6.87256 7.30707)"/>
</clipPath>
</defs>
</svg>
