<svg width="133" height="133" viewBox="0 0 133 133" fill="none" xmlns="http://www.w3.org/2000/svg">
<g filter="url(#filter0_d_728_167)">
<circle cx="65.5" cy="63.5" r="36.5" fill="#F9EFED"/>
</g>
<path d="M57.9445 57.232C58.0298 54.9493 58.7765 53.1893 60.1845 51.952C61.5925 50.7147 63.5018 50.096 65.9125 50.096C67.5125 50.096 68.8778 50.3733 70.0085 50.928C71.1605 51.4827 72.0245 52.24 72.6005 53.2C73.1978 54.16 73.4965 55.2373 73.4965 56.432C73.4965 57.84 73.1445 58.992 72.4405 59.888C71.7365 60.7627 70.9152 61.36 69.9765 61.68V61.808C71.1925 62.2133 72.1525 62.8853 72.8565 63.824C73.5605 64.7627 73.9125 65.968 73.9125 67.44C73.9125 68.7627 73.6032 69.936 72.9845 70.96C72.3872 71.9627 71.5018 72.752 70.3285 73.328C69.1765 73.904 67.8005 74.192 66.2005 74.192C63.6405 74.192 61.5925 73.5627 60.0565 72.304C58.5418 71.0453 57.7418 69.1467 57.6565 66.608H62.9685C62.9898 67.5467 63.2565 68.2933 63.7685 68.848C64.2805 69.3813 65.0272 69.648 66.0085 69.648C66.8405 69.648 67.4805 69.4133 67.9285 68.944C68.3978 68.4533 68.6325 67.8133 68.6325 67.024C68.6325 66 68.3018 65.264 67.6405 64.816C67.0005 64.3467 65.9658 64.112 64.5365 64.112H63.5125V59.664H64.5365C65.6245 59.664 66.4992 59.4827 67.1605 59.12C67.8432 58.736 68.1845 58.064 68.1845 57.104C68.1845 56.336 67.9712 55.7387 67.5445 55.312C67.1178 54.8853 66.5312 54.672 65.7845 54.672C64.9738 54.672 64.3658 54.9173 63.9605 55.408C63.5765 55.8987 63.3525 56.5067 63.2885 57.232H57.9445Z" fill="#FFA12E"/>
<defs>
<filter id="filter0_d_728_167" x="0" y="0" width="133" height="133" filterUnits="userSpaceOnUse" color-interpolation-filters="sRGB">
<feFlood flood-opacity="0" result="BackgroundImageFix"/>
<feColorMatrix in="SourceAlpha" type="matrix" values="0 0 0 0 0 0 0 0 0 0 0 0 0 0 0 0 0 0 127 0" result="hardAlpha"/>
<feOffset dx="1" dy="3"/>
<feGaussianBlur stdDeviation="15"/>
<feComposite in2="hardAlpha" operator="out"/>
<feColorMatrix type="matrix" values="0 0 0 0 0.243137 0 0 0 0 0.0745098 0 0 0 0 0.301961 0 0 0 0.12 0"/>
<feBlend mode="normal" in2="BackgroundImageFix" result="effect1_dropShadow_728_167"/>
<feBlend mode="normal" in="SourceGraphic" in2="effect1_dropShadow_728_167" result="shape"/>
</filter>
</defs>
</svg>
