<?xml version="1.0" encoding="UTF-8"?>
<svg width="41px" height="41px" viewBox="0 0 41 41" version="1.1" xmlns="http://www.w3.org/2000/svg" xmlns:xlink="http://www.w3.org/1999/xlink">
    <title>Menu-Features-Exports</title>
    <g id="ðŸ -Home-/-Menu" stroke="none" stroke-width="1" fill="none" fill-rule="evenodd">
        <g id="Menu_Product" transform="translate(-329.000000, -211.000000)">
            <g id="Group-7" transform="translate(289.311827, 74.500000)">
                <g id="Group-9" transform="translate(40.000000, 130.000000)">
                    <g id="Menu-Features-Exports" transform="translate(0.000000, 7.000000)">
                        <rect id="Rectangle" fill="#F3FCF3" x="0" y="0" width="40" height="40" rx="6"></rect>
                        <path d="M19.9726,12.3216 C20.481,12.3216 20.8968,12.7474 20.8992,13.271 L20.9254,24.2752 L26.93,18.2078 C27.1038353,18.0306448 27.341802,17.9311314 27.59,17.9318 C27.8426164,17.9310915 28.0847795,18.0325879 28.2614,18.2132 C28.4467587,18.3976011 28.5499372,18.6489499 28.5476594,18.9104 C28.5504655,19.1677975 28.4495386,19.415501 28.2676,19.5976 L20.6626,27.2908 C20.5183475,27.4383188 20.3295096,27.5320293 20.1272888,27.558845 L20.0046,27.5668024 L20.0046,27.5668024 C19.748,27.5586 19.4956,27.4534 19.329,27.2854 L11.7346,19.6034 C11.5515139,19.4170919 11.4497476,19.1658045 11.4515751,18.9046 C11.4503092,18.6470553 11.5515577,18.399583 11.733,18.2168 C11.9065317,18.0391007 12.1446259,17.9392455 12.393,17.94 C12.646983,17.9394234 12.8903904,18.0416487 13.0678,18.2234 L19.078,24.3034 L19.0512,13.2652 C19.049813,13.013199 19.1483371,12.7709159 19.3252,12.5914 C19.4935826,12.4190776 19.7242692,12.3218288 19.9652,12.3216 L19.9726,12.3216 Z" id="Combined-Shape" fill="#4FD046"></path>
                    </g>
                </g>
            </g>
        </g>
    </g>
</svg>