<?xml version="1.0" encoding="UTF-8"?>
<svg width="41px" height="41px" viewBox="0 0 41 41" version="1.1" xmlns="http://www.w3.org/2000/svg" xmlns:xlink="http://www.w3.org/1999/xlink">
    <title>Menu-Features-Analytics</title>
    <g id="ðŸ -Home-/-Menu" stroke="none" stroke-width="1" fill="none" fill-rule="evenodd">
        <g id="Menu_Product" transform="translate(-329.000000, -127.000000)">
            <g id="Group-7" transform="translate(289.311827, 74.500000)">
                <g id="Group-8" transform="translate(40.000050, 46.000000)">
                    <g id="Menu-Features-Analytics" transform="translate(0.000000, 6.983611)">
                        <rect id="Rectangle" fill="#EEF7FF" x="0" y="0" width="40" height="40" rx="6"></rect>
                        <path d="M26.0776639,12.3593816 C26.3648524,12.5270755 26.5394482,12.8364613 26.5345498,13.1689888 L26.5345498,26.8421888 C26.5345498,27.3037272 26.1937214,27.699145 25.7670567,27.7586632 L25.6587498,27.7663888 L25.6587498,27.7663888 L25.6563498,27.7663888 L25.5065498,27.7585888 C25.0418125,27.703858 24.6914855,27.3101376 24.6911498,26.8421888 L24.6911498,13.1689888 C24.6862513,12.8364613 24.8608471,12.5270755 25.1480357,12.3593816 C25.4352243,12.1916878 25.7904753,12.1916878 26.0776639,12.3593816 Z M20.3536639,19.9805816 C20.6408524,20.1482755 20.8154482,20.4576613 20.8105498,20.7901888 L20.8105498,26.8421888 C20.8105498,27.3037272 20.4681877,27.699145 20.0414443,27.7586632 L19.9331498,27.7663888 L19.9331498,27.7663888 L19.9307498,27.7663888 L19.7807498,27.7585888 C19.3165482,27.7033592 18.9670173,27.3096643 18.9671498,26.8421888 L18.9671498,20.7901888 C18.9622513,20.4576613 19.1368471,20.1482755 19.4240357,19.9805816 C19.7112243,19.8128878 20.0664753,19.8128878 20.3536639,19.9805816 Z M14.3878498,24.1403722 C14.8920909,24.1403722 15.3029258,24.5452023 15.3103498,25.0493888 L15.3103498,26.8421888 C15.3103498,27.3037272 14.9679877,27.699145 14.5412443,27.7586632 L14.4329498,27.7663888 L14.4329498,27.7663888 L14.4303498,27.7663888 L14.2805498,27.7585888 C13.8233498,27.7045888 13.4653498,27.3021888 13.4653498,26.8421888 L13.4653498,25.0493888 C13.4727737,24.5452023 13.8836087,24.1403722 14.3878498,24.1403722 Z" id="Combined-Shape" fill="#0089FF"></path>
                    </g>
                </g>
            </g>
        </g>
    </g>
</svg>