<?xml version="1.0" encoding="UTF-8"?>
<svg width="41px" height="41px" viewBox="0 0 41 41" version="1.1" xmlns="http://www.w3.org/2000/svg" xmlns:xlink="http://www.w3.org/1999/xlink">
    <title>Menu-Features-Collaboration</title>
    <g id="ðŸ -Home-/-Menu" stroke="none" stroke-width="1" fill="none" fill-rule="evenodd">
        <g id="Menu_Product" transform="translate(-669.000000, -127.000000)">
            <g id="Group-7" transform="translate(289.311827, 74.500000)">
                <g id="Group-13" transform="translate(380.000000, 46.000000)">
                    <g id="Menu-Features-Collaboration" transform="translate(0.000000, 7.000000)">
                        <rect id="Rectangle" fill="#F9F3FF" x="0" y="0" width="40" height="40" rx="6"></rect>
                        <g id="Icons_Menu_Collaboration" transform="translate(11.988600, 12.321000)" fill="#7900FF">
                            <path d="M5.1314,2.88 C5.13031485,3.68253368 5.46499683,4.44893002 6.0544,4.9936 L6.0544,4.9936 L6.0166,5.0504 L3.4314,9.5298 C3.25000518,9.49499775 3.06570309,9.47758549 2.881,9.4778 L2.881,9.4778 C2.11700326,9.47753472 1.38420706,9.78084531 0.843885993,10.3209788 C0.303564922,10.8611124 0,11.5938032 0,12.3578 L0,12.3578 C0.000552149227,13.9485418 1.29025808,15.2378 2.881,15.2378 L2.881,15.2378 C4.47158008,15.2378 5.761,13.9483801 5.761,12.3578 L5.761,12.3578 L5.761,12.3088 L10.263,12.3088 L10.263,12.3578 C10.263,13.9483801 11.5524199,15.2378 13.143,15.2378 L13.143,15.2378 C14.7335801,15.2378 16.023,13.9483801 16.023,12.3578 L16.023,12.3578 C16.023,10.7672199 14.7335801,9.4778 13.143,9.4778 L13.143,9.4778 C12.9506465,9.47750645 12.7587499,9.4965353 12.5702,9.5346 L12.5702,9.5346 L10.193,5.064 C10.1599461,5.00235082 10.1190015,4.9452705 10.0712,4.8942 L10.0712,4.8942 C10.5979916,4.35614878 10.8928234,3.63299953 10.8924,2.88 L10.8924,2.88 C10.8924,1.28941992 9.60298008,0 8.0124,0 L8.0124,0 C6.42181992,0 5.1324,1.28941992 5.1324,2.88 L5.1314,2.88 Z M6.749,2.8736 C6.74922071,2.17645481 7.31425485,1.61133115 8.0114,1.61099998 L8.0114,1.61099998 C8.3462786,1.61094694 8.66745668,1.74395345 8.90425162,1.98074838 C9.14104655,2.21754332 9.27405306,2.5387214 9.27400014,2.8736 L9.27400014,2.8736 C9.27415927,3.20851114 9.14118687,3.52975094 8.9043689,3.7665689 C8.66755094,4.00338687 8.34631114,4.13635927 8.0114,4.13620014 L8.0114,4.13620014 C7.6765214,4.13625306 7.35534332,4.00324655 7.11854838,3.76645162 C6.88175345,3.52965668 6.74874694,3.2084786 6.74879998,2.8736 L6.749,2.8736 Z M8.6098,5.699 L8.718,5.6718 C8.7333882,5.7219153 8.75347749,5.77046441 8.778,5.8168 L8.778,5.8168 L11.1496,10.279 C11.0130671,10.4098111 10.8896162,10.5536251 10.781,10.7084 L5.5974,10.7084 C5.48997043,10.7079921 5.38361477,10.7297807 5.285,10.7724 L5.285,10.7724 C5.16236831,10.5874393 5.01911601,10.4170127 4.858,10.2644 L4.858,10.2644 L7.405,5.8524 C7.43113067,5.80727631 7.45231979,5.75946667 7.4682,5.7098 L7.4682,5.7098 C7.64718919,5.74436278 7.82910503,5.76150948 8.0114,5.761 L8.0114,5.761 C8.21244582,5.76093478 8.41295713,5.74029391 8.6098,5.6994 L8.6098,5.699 Z M11.8801999,12.3536 C11.8800938,12.0186705 12.0131107,11.6974312 12.2499604,11.460619 C12.4868102,11.2238068 12.8080705,11.0908408 13.143,11.0909999 L13.143,11.0909999 C13.4778786,11.0909469 13.7990567,11.2239534 14.0358516,11.4607484 C14.2726466,11.6975433 14.4056531,12.0187214 14.4056,12.3536 L14.4056,12.3536 C14.4053792,13.0508233 13.8402233,13.6159792 13.143,13.6162 L13.143,13.6162 C12.808103,13.616253 12.4869044,13.4832529 12.2500777,13.2464637 C12.013251,13.0096746 11.8801999,12.688497 11.8801999,12.3536 L11.8801999,12.3536 Z M1.61799998,12.3536 C1.61794694,12.0187214 1.75095345,11.6975433 1.98774838,11.4607484 C2.22454332,11.2239534 2.5457214,11.0909469 2.8806,11.091 L2.8806,11.091 C3.21549699,11.090947 3.53669562,11.2239471 3.77352231,11.4607363 C4.010349,11.6975254 4.1434,12.018703 4.1434,12.3536 L4.1434,12.3536 C4.14306885,13.0508556 3.57785565,13.6159793 2.8806,13.6162 L2.8806,13.6162 C2.18337675,13.6159792 1.61822078,13.0508233 1.61799998,12.3536 L1.61799998,12.3536 Z" id="Clip-2"></path>
                        </g>
                    </g>
                </g>
            </g>
        </g>
    </g>
</svg>